<?xml version="1.0" encoding="UTF-8"?>
<svg width="125px" height="36px" viewBox="0 0 125 36" version="1.1" xmlns="http://www.w3.org/2000/svg" xmlns:xlink="http://www.w3.org/1999/xlink">
    <!-- Generator: Sketch 51.2 (57519) - http://www.bohemiancoding.com/sketch -->
    <title>Group 34</title>
    <desc>Created with Sketch.</desc>
    <defs>
        <polygon id="path-1" points="0 0.159414765 28.7933125 0.159414765 28.7933125 36 0 36"></polygon>
    </defs>
    <g id="Desktop" stroke="none" stroke-width="1" fill="none" fill-rule="evenodd">
        <g id="Home" transform="translate(-84.000000, -24.000000)">
            <g id="Group-20">
                <g id="Group-34" transform="translate(84.000000, 24.000000)">
                    <g id="Group-3">
                        <mask id="mask-2" fill="white">
                            <use xlink:href="#path-1"></use>
                        </mask>
                        <g id="Clip-2"></g>
                        <path d="M10.6908041,34.0424215 L1.97856,34.0424215 L1.97856,29.4829852 C1.97856,26.0260188 4.81950915,23.2139114 8.31138712,23.2139114 L8.40242441,23.2139114 L8.40242441,27.6808107 L12.9796719,27.6808107 C15.8396583,27.6808107 18.1956447,25.509455 18.4560651,22.7447034 C22.3467498,21.6086497 25.3961329,18.5114416 26.4304922,14.6137772 C26.6845668,15.7481396 26.8158753,16.9119785 26.8158753,18.0796832 C26.8158753,26.8815624 19.5821939,34.0424215 10.6908041,34.0424215 Z M10.3798617,23.2139114 L15.1670075,23.2139114 C15.5763092,23.2139114 15.9807295,23.1924081 16.3792922,23.1515758 C15.971699,24.6316832 14.6024786,25.7230389 12.9796719,25.7230389 L10.3798617,25.7230389 L10.3798617,23.2139114 Z M10.3798617,10.4360859 L15.1609058,10.4360859 C15.8596719,10.4360859 16.4283498,10.9990389 16.4283498,11.6907705 C16.4283498,12.3829852 15.8596719,12.9456966 15.1609058,12.9456966 L10.3798617,12.9456966 L10.3798617,10.4360859 Z M26.6977464,9.70279732 C26.6733397,9.6573745 26.6452719,9.61557584 26.6152515,9.57571007 C25.6104244,4.22427383 20.8596447,0.159414765 15.1670075,0.159414765 L10.6908041,0.159414765 L0.00112271186,0.159414765 L0.00112271186,13.3329987 L0.00112271186,15.5944752 C0.000634576271,15.5947168 0.000390508475,15.5949584 -9.76271186e-05,15.5952 L-9.76271186e-05,17.9586362 C0.475834576,17.6107168 0.971048136,17.2886497 1.48432271,16.994851 C3.87618712,15.6263678 6.60974644,14.9032268 9.38919051,14.9032268 L15.1609058,14.9032268 C16.9501668,14.9032268 18.4057871,13.4620188 18.4057871,11.6907705 C18.4057871,9.91952215 16.9501668,8.4785557 15.1609058,8.4785557 L8.40242441,8.4785557 L8.40242441,12.9746899 C6.17628203,13.096945 3.99480407,13.6296966 1.97856,14.5429852 L1.97856,13.3329987 L1.97856,2.11670336 L10.6908041,2.11670336 L15.1670075,2.11670336 C20.4974481,2.11670336 24.8340447,6.40988456 24.8340447,11.6866631 C24.8340447,16.9634416 20.4974481,21.2561396 15.1670075,21.2561396 L9.38919051,21.2561396 L8.31138712,21.2561396 C3.72925831,21.2561396 0.00112271186,24.9467436 0.00112271186,29.4829852 L0.00112271186,36.0001933 L10.6908041,36.0001933 C20.6724447,36.0001933 28.7933125,27.9608376 28.7933125,18.0796832 C28.7933125,15.1615087 28.0686753,12.2650792 26.6977464,9.70279732 Z" id="Fill-1" fill="#D61D4B" mask="url(#mask-2)"></path>
                    </g>
                    <g id="Group-19" transform="translate(37.028571, 4.114286)" fill="#333333">
                        <path d="M4.77350692,5.89619907 L1.90925269,5.89619907 L1.90925269,8.59080985 L4.77350692,8.59080985 C5.72825833,8.59080985 6.21301291,8.14174636 6.21301291,7.25786806 C6.21301291,6.34526257 5.72825833,5.89619907 4.77350692,5.89619907 Z M4.5006136,4.24450034 C5.42509912,4.24450034 5.89459569,3.82439386 5.89459569,2.96970239 C5.89459569,2.11501092 5.42509912,1.69490443 4.5006136,1.69490443 L1.90925269,1.69490443 L1.90925269,4.24450034 L4.5006136,4.24450034 Z M4.72798301,0 C6.68300974,0 7.8343644,0.970289698 7.8343644,2.70885947 C7.8343644,3.737293 7.45566552,4.46190774 6.68300974,4.89626291 L6.68300974,4.95440675 C7.71330082,5.30212071 8.22857143,6.14233367 8.22857143,7.46079696 C8.22857143,9.24280224 6.86460511,10.2857143 4.81903083,10.2857143 L0.530278488,10.2857143 C0.151579606,10.2857143 0,10.1551779 0,9.79321528 L0,0.492269193 C0,0.130306551 0.151579606,0 0.530278488,0 L4.72798301,0 Z" id="Fill-4"></path>
                        <path d="M12.1405262,7.28761605 C12.1405262,8.70790525 12.920451,9.48823496 14.4074105,9.48823496 C15.894127,9.48823496 16.6742948,8.70790525 16.6742948,7.28761605 L16.6742948,0.530287515 C16.6742948,0.140370224 16.8069549,0 17.1748073,0 L18.0137732,0 C18.3818686,0 18.5142857,0.140370224 18.5142857,0.530287515 L18.5142857,7.27226692 C18.5142857,9.76897541 17.0569682,11.3142857 14.4074105,11.3142857 C11.7578528,11.3142857 10.2857143,9.76897541 10.2857143,7.27226692 L10.2857143,0.530287515 C10.2857143,0.140370224 10.4181314,0 10.7862268,0 L11.6397707,0 C12.0078661,0 12.1405262,0.140370224 12.1405262,0.530287515 L12.1405262,7.28761605 Z" id="Fill-6"></path>
                        <path d="M28.7090476,9.79321528 C28.889878,10.1262209 28.7993384,10.2857143 28.4528504,10.2857143 L27.5787951,10.2857143 C26.9156672,10.2857143 26.7348367,10.2133218 26.5540063,9.8511293 L25.0319959,6.91015411 C24.8208198,6.51900463 24.5949683,6.24391303 24.368868,6.09889815 C24.1278437,5.96836178 23.7510099,5.89619907 23.2388643,5.89619907 L22.4700239,5.89619907 L22.4700239,9.79321528 C22.4700239,10.1551779 22.334712,10.2857143 21.9578783,10.2857143 L21.0987471,10.2857143 C20.7221621,10.2857143 20.5714286,10.1551779 20.5714286,9.79321528 L20.5714286,0.492269193 C20.5714286,0.130306551 20.7221621,0 21.0987471,0 L21.9578783,0 C22.334712,0 22.4700239,0.130306551 22.4700239,0.492269193 L22.4700239,4.24450034 L23.0729579,4.24450034 L23.2689612,4.24450034 L26.2978091,0.405398159 C26.5540063,0.0579140227 26.7196639,0 27.3225979,0 L28.286944,0 C28.6334321,0 28.7242204,0.231885908 28.5279684,0.478020505 L25.1678053,4.60692262 C25.8157604,4.88201422 26.358003,5.43242726 26.7952794,6.25839153 L28.7090476,9.79321528 Z" id="Fill-8"></path>
                        <path d="M34.8098255,3.44310608 C34.6373113,2.92215355 34.5220642,2.25684898 34.4788168,1.92408194 L34.4643218,1.67829333 L34.3638073,1.67829333 C34.3638073,2.22793267 34.2628176,2.80671781 34.047056,3.42864793 L32.9385453,6.49561251 L35.9040788,6.49561251 L34.8098255,3.44310608 Z M39.0423641,9.80836571 C39.1573736,10.1266746 39.0423641,10.2857143 38.7113555,10.2857143 L37.9626058,10.2857143 C37.3723506,10.2857143 37.1853414,10.1989654 37.0700943,9.85196967 L36.4078393,7.98572034 L32.4343096,7.98572034 L31.7577972,9.85196967 C31.6427878,10.1989654 31.4555409,10.2857143 30.8652857,10.2857143 L30.2030308,10.2857143 C29.8720221,10.2857143 29.756775,10.1266746 29.8720221,9.80836571 L33.4710582,0.405057804 C33.6005626,0.0722907695 33.7303047,0 34.0758084,0 L34.8385778,0 C35.1840815,0 35.3283186,0.0867489234 35.443328,0.39059965 L39.0423641,9.80836571 Z" id="Fill-10"></path>
                        <path d="M42.4131035,0 C42.7583535,0 42.8825523,0.130306551 42.8825523,0.492499011 L42.8825523,8.59080985 L46.8450648,8.59080985 C47.1900869,8.59080985 47.3142857,8.7211164 47.3142857,9.08307904 L47.3142857,9.79321528 C47.3142857,10.1551779 47.1900869,10.2857143 46.8450648,10.2857143 L41.6259792,10.2857143 C41.2809571,10.2857143 41.1428571,10.1551779 41.1428571,9.79321528 L41.1428571,0.492499011 C41.1428571,0.130306551 41.2809571,0 41.6259792,0 L42.4131035,0 Z" id="Fill-12"></path>
                        <path d="M54.3526826,3.44310608 C54.1799308,2.92215355 54.0646837,2.25684898 54.0214363,1.92408194 L54.0071789,1.67829333 L53.9066645,1.67829333 C53.9066645,2.22793267 53.8056747,2.80671781 53.5899132,3.42864793 L52.4811648,6.49561251 L55.4469359,6.49561251 L54.3526826,3.44310608 Z M58.5852213,9.80836571 C58.7002307,10.1266746 58.5852213,10.2857143 58.2542126,10.2857143 L57.5054629,10.2857143 C56.9152077,10.2857143 56.7281985,10.1989654 56.6127138,9.85196967 L55.9506964,7.98572034 L51.9771667,7.98572034 L51.3006544,9.85196967 C51.1856449,10.1989654 50.9983981,10.2857143 50.4081429,10.2857143 L49.7458879,10.2857143 C49.4148792,10.2857143 49.2996321,10.1266746 49.4148792,9.80836571 L53.0139153,0.405057804 C53.1434198,0.0722907695 53.2731619,0 53.6186655,0 L54.381435,0 C54.7269386,0 54.8709381,0.0867489234 54.9861852,0.39059965 L58.5852213,9.80836571 Z" id="Fill-14"></path>
                        <path d="M64.0786728,5.01255059 C65.1991958,5.01255059 65.8592959,4.40422354 65.8592959,3.36085186 C65.8592959,2.31793981 65.1991958,1.69490443 64.0786728,1.69490443 L61.5915781,1.69490443 L61.5915781,5.01255059 L64.0786728,5.01255059 Z M64.2628927,0 C66.4889882,0 67.8857143,1.27479795 67.8857143,3.36085186 C67.8857143,5.4473654 66.4889882,6.70745503 64.2628927,6.70745503 L61.5915781,6.70745503 L61.5915781,9.79344509 C61.5915781,10.1554077 61.4534765,10.2857143 61.0695796,10.2857143 L60.1945986,10.2857143 C59.8107016,10.2857143 59.6571429,10.1554077 59.6571429,9.79344509 L59.6571429,0.492499011 C59.6571429,0.130536369 59.8107016,0 60.1945986,0 L64.2628927,0 Z" id="Fill-16"></path>
                        <path d="M72.8669142,3.44310608 C72.6944019,2.92215355 72.5791561,2.25684898 72.5359092,1.92408194 L72.5216519,1.67829333 L72.4209009,1.67829333 C72.4209009,2.22793267 72.3199123,2.80671781 72.1041531,3.42864793 L70.9954168,6.49561251 L73.9611557,6.49561251 L72.8669142,3.44310608 Z M77.099407,9.80836571 C77.2146528,10.1266746 77.099407,10.2857143 76.7684019,10.2857143 L76.0198979,10.2857143 C75.4294115,10.2857143 75.2424043,10.1989654 75.1271585,9.85196967 L74.4649107,7.98572034 L70.4916618,7.98572034 L69.8149191,9.85196967 C69.6999109,10.1989654 69.5126661,10.2857143 68.9224173,10.2857143 L68.2601695,10.2857143 C67.9291645,10.2857143 67.8139186,10.1266746 67.9291645,9.80836571 L71.5281615,0.405057804 C71.6576645,0.0722907695 71.7874052,0 72.1329051,0 L72.8956663,0 C73.2411662,0 73.3854017,0.0867489234 73.5004099,0.39059965 L77.099407,9.80836571 Z" id="Fill-18"></path>
                        <path d="M87.337619,9.79321528 C87.5184494,10.1262209 87.4279099,10.2857143 87.0814218,10.2857143 L86.2073665,10.2857143 C85.5442386,10.2857143 85.3634082,10.2133218 85.1825777,9.8511293 L83.6605674,6.91015411 C83.4493912,6.51900463 83.2237884,6.24391303 82.9976882,6.09889815 C82.7564151,5.96836178 82.3795814,5.89619907 81.8674357,5.89619907 L81.0988441,5.89619907 L81.0988441,9.79321528 C81.0988441,10.1551779 80.9632834,10.2857143 80.5864497,10.2857143 L79.7273185,10.2857143 C79.3509822,10.2857143 79.2,10.1551779 79.2,9.79321528 L79.2,0.492269193 C79.2,0.130306551 79.3509822,0 79.7273185,0 L80.5864497,0 C80.9632834,0 81.0988441,0.130306551 81.0988441,0.492269193 L81.0988441,4.24450034 L81.7015294,4.24450034 L81.8975326,4.24450034 L84.9266292,0.405398159 C85.1825777,0.0579140227 85.3482353,0 85.9511693,0 L86.9155155,0 C87.2620035,0 87.3527918,0.231885908 87.1565398,0.478020505 L83.7963767,4.60692262 C84.4443318,4.88201422 84.9868231,5.43242726 85.4238508,6.25839153 L87.337619,9.79321528 Z" id="Fill-20"></path>
                        <path d="M7.38362819,21.2957743 C7.38362819,19.9196576 6.49919468,19.1805809 4.92527413,19.1805809 L2.91717713,19.1805809 L2.91717713,26.076562 L4.92527413,26.076562 C6.49919468,26.076562 7.38362819,25.3374853 7.38362819,23.9613685 L7.38362819,21.2957743 Z M4.91043049,17.4857143 C7.66837867,17.4857143 9.25714286,18.9344518 9.25714286,21.3100227 L9.25714286,23.9468904 C9.25714286,26.3224613 7.66837867,27.7714286 4.91043049,27.7714286 L1.55329408,27.7714286 C1.17849219,27.7714286 1.02857143,27.6408951 1.02857143,27.2787108 L1.02857143,17.9782023 C1.02857143,17.6160179 1.17849219,17.4857143 1.55329408,17.4857143 L4.91043049,17.4857143 Z" id="Fill-22"></path>
                        <path d="M17.8348712,17.4857143 C18.2125729,17.4857143 18.3633047,17.6160179 18.3633047,17.9784321 L18.3633047,18.6880928 C18.3633047,19.0502772 18.2125729,19.1805809 17.8348712,19.1805809 L13.2159986,19.1805809 L13.2159986,21.7158714 L17.1255595,21.7158714 C17.5027628,21.7158714 17.6387952,21.8464049 17.6387952,22.2083594 L17.6387952,22.9184798 C17.6387952,23.2804343 17.5027628,23.410738 17.1255595,23.410738 L13.2159986,23.410738 L13.2159986,26.076562 L18.00105,26.076562 C18.3785025,26.076562 18.5142857,26.2068656 18.5142857,26.5688202 L18.5142857,27.2787108 C18.5142857,27.6408951 18.3785025,27.7714286 18.00105,27.7714286 L11.8427192,27.7714286 C11.4652667,27.7714286 11.3142857,27.6408951 11.3142857,27.2787108 L11.3142857,17.9784321 C11.3142857,17.6160179 11.4652667,17.4857143 11.8427192,17.4857143 L17.8348712,17.4857143 Z" id="Fill-24"></path>
                        <path d="M23.6568545,16.4571429 C25.6851216,16.4571429 26.7792105,17.1908602 27.4942337,18.7659877 C27.6401764,19.0868829 27.5527553,19.3163364 27.2170388,19.4691436 L26.4145945,19.8361236 C26.0791188,19.9736501 25.9623165,19.9280505 25.7872333,19.5761087 C25.3785455,18.719903 24.7658749,18.2918001 23.6568545,18.2918001 C22.2417396,18.2918001 21.5411663,18.7659877 21.5411663,19.6983545 C21.4537451,20.5089606 22.314711,20.8759406 23.0877741,20.9984289 C23.540293,21.0901133 24.5905509,21.2121165 25.1307318,21.3193242 C25.714262,21.44157 26.5167062,21.747427 26.9689843,22.1755299 C27.4212623,22.6036328 27.7714286,23.3679116 27.7714286,24.3466057 C27.7714286,26.4262396 26.2392705,27.7714286 23.6130235,27.7714286 C21.4099141,27.7714286 20.2281632,26.9307461 19.600802,25.2180921 C19.4695499,24.8358314 19.556971,24.667986 19.9071373,24.5454976 L20.7098224,24.2396406 C21.0452981,24.1173948 21.1765502,24.1935559 21.3371836,24.5605358 C21.7164902,25.5086684 22.4751035,25.9826135 23.6130235,25.9826135 C25.1598722,25.9826135 25.9329352,25.447303 25.9329352,24.3926904 C25.9329352,23.7196108 25.3785455,23.3070312 24.7950153,23.1539814 C24.5031298,23.0775778 24.1093734,23.0164549 23.6277141,22.9706127 C22.9712126,22.8942091 22.6937768,22.8634051 22.0664157,22.7258786 C21.4392954,22.5881095 21.1327192,22.4202641 20.6657506,22.0991263 C20.0092491,21.6557427 19.7029138,20.9370635 19.6590828,19.8055621 C19.6590828,17.8025744 21.1035789,16.4571429 23.6568545,16.4571429" id="Fill-26"></path>
                        <path d="M29.8285714,17.9784321 C29.8285714,17.6162477 29.991871,17.4857143 30.4001198,17.4857143 L31.3306037,17.4857143 C31.7388525,17.4857143 31.8857143,17.6162477 31.8857143,17.9784321 L31.8857143,27.2789406 C31.8857143,27.6411249 31.7388525,27.7714286 31.3306037,27.7714286 L30.4001198,27.7714286 C29.991871,27.7714286 29.8285714,27.6411249 29.8285714,27.2789406 L29.8285714,17.9784321 Z" id="Fill-28"></path>
                        <path d="M41.6814344,21.5945096 C42.0705754,21.5945096 42.1714286,21.7320332 42.1714286,22.1142857 L42.1714286,24.1630718 C42.1714286,25.2334272 41.8110688,26.104895 41.090825,26.7624372 C40.3555959,27.4350173 39.3470643,27.7714286 38.0645166,27.7714286 C35.4273491,27.7714286 33.9428571,26.2729794 33.9428571,23.7810618 L33.9428571,20.4324718 C33.9428571,17.9708724 35.4273491,16.4571429 38.0645166,16.4571429 C40.1105989,16.4571429 41.4221657,17.3135728 41.9839939,19.0106671 C42.0993566,19.3315555 41.9985035,19.5607614 41.6814344,19.6832472 L40.8888808,19.9735747 C40.5430306,20.1113409 40.3988867,20.0346963 40.2692523,19.6526864 C39.9521833,18.7198545 39.2171921,18.2459196 38.0645166,18.2459196 C36.5657529,18.2459196 35.7586898,19.0106671 35.7586898,20.4171914 L35.7586898,23.7960997 C35.7586898,25.2179043 36.5800246,25.9826518 38.0645166,25.9826518 C39.5054799,25.9826518 40.3988867,25.2334272 40.3988867,24.1783522 L40.3988867,23.3832864 L38.2229321,23.3832864 C37.8625724,23.3832864 37.732938,23.2302399 37.732938,22.8482299 L37.732938,22.1142857 C37.732938,21.7320332 37.8625724,21.5945096 38.2229321,21.5945096 L41.6814344,21.5945096 Z" id="Fill-30"></path>
                        <path d="M52.9834071,17.4857143 C53.3528223,17.4857143 53.4857143,17.6160179 53.4857143,17.9784321 L53.4857143,27.2787108 C53.4857143,27.6408951 53.3528223,27.7714286 52.9834071,27.7714286 L52.1411892,27.7714286 C51.9195401,27.7714286 51.7571437,27.6845595 51.6540001,27.5250697 L48.0344625,22.2807503 C47.4138937,21.3973514 46.7935688,19.8036023 46.8230732,19.8470369 L46.7345599,19.8470369 C46.7345599,19.8036023 47.0595965,21.5129471 47.0595965,22.7300336 L47.0595965,27.2787108 C47.0595965,27.6408951 46.9267045,27.7714286 46.5570455,27.7714286 L45.7743242,27.7714286 C45.4049089,27.7714286 45.2571429,27.6408951 45.2571429,27.2787108 L45.2571429,17.9784321 C45.2571429,17.6160179 45.4049089,17.4857143 45.7743242,17.4857143 L46.6162982,17.4857143 C46.8377035,17.4857143 47.0003437,17.5581052 47.1037312,17.717595 L50.6935205,22.9327282 C51.3730982,23.9034558 51.9490445,25.4098762 51.9344142,25.395398 L52.0231714,25.395398 C52.0231714,25.4098762 51.6981348,23.7729224 51.6981348,22.4694263 L51.6981348,17.9784321 C51.6981348,17.6160179 51.8310267,17.4857143 52.200442,17.4857143 L52.9834071,17.4857143 Z" id="Fill-32"></path>
                    </g>
                </g>
            </g>
        </g>
    </g>
</svg>